<?xml version="1.0" encoding="UTF-8"?>
<svg version="1.1" viewBox="0 0 1600 1128" width="1280" height="1280" xmlns="http://www.w3.org/2000/svg">
<path transform="translate(0)" d="m0 0h1600v1128h-1600v-1128z" fill="#FAFCFC"/>
<path transform="translate(862,467)" d="m0 0c1 0.401 2 0.802 3.03 1.21 15.2 6.78 26.3 19.9 32.9 35 0.718 1.91 1.41 3.82 2.06 5.75 0.245 0.699 0.49 1.4 0.742 2.12 4.01 14.1 1.92 31.4-4.47 44.4-8.55 14.6-20.8 27.4-37.4 32.4-7.25 1.8-14.4 2.67-21.9 3.06-0.122 1.1-0.245 2.21-0.371 3.35-0.638 5.09-1.66 10.1-2.7 15.1-0.407 2-0.814 4-1.22 6.01-0.639 3.13-1.28 6.25-1.92 9.38-0.623 3.04-1.24 6.07-1.86 9.11-0.194 0.933-0.387 1.87-0.587 2.83-0.177 0.875-0.354 1.75-0.536 2.65-0.157 0.764-0.314 1.53-0.475 2.32-0.363 2.45-0.391 4.79-0.335 7.26 1.04-0.519 2.08-1.04 3.16-1.57 12.1-5.94 25.1-12.1 38.8-12.4 0.981-0.0387 1.96-0.0773 2.97-0.117 15.9-0.342 30.4 3.18 44.7 10.1 0.696 0.332 1.39 0.664 2.11 1.01 2.86 1.44 4.9 2.52 6.66 5.24 0.179 0.578 0.358 1.15 0.543 1.75-5.52-0.592-10.7-1.57-16.1-3-27.4-7.29-53.9-2.56-78.5 10.9-1.79 1.17-1.79 1.17-2.47 4.14 0.518 0.347 1.04 0.693 1.57 1.05 13.9 9.33 26.8 19.1 39 30.6 1.42 1.34 2.86 2.67 4.29 4.01 15.5 14.9 29.8 34.1 30.4 56.2-0.14 10.3-3.58 16.5-10.2 24.2 0-3.26 0.79-5.01 2-8 2.93-11.9 1.37-23.2-4.58-33.8-6.49-11.4-6.49-11.4-16.4-19.2-0.266 0.708-0.531 1.42-0.805 2.14-7.25 17.3-21 33.9-38.2 41.9-21 7.42-47.9 6.57-68.2-2.55-12.3-6.39-19.6-14.6-24.8-27.4-7.29-24.2-0.936-49.4 10.7-71.2 3.7-6.49 8.37-12.2 13.3-17.8 0.679-0.781 1.36-1.56 2.06-2.37 5.24-5.6 11.4-9.65 17.9-13.6 1.01-0.621 2.02-1.24 3.06-1.88 11.3-6.55 23.8-10.5 36.9-11.1 0.182-0.713 0.364-1.43 0.551-2.16 1.45-5.51 3.04-10.7 5.45-15.8h2c-0.99-3.47-0.99-3.47-2-7-0.969-0.196-1.94-0.392-2.94-0.594-18.5-4-34.8-12.3-45.8-28.2-8.78-14.9-13.2-31.3-9.11-48.5 5.37-17.8 14.7-32.3 30.8-42.1 5.14-2.74 10.5-4.72 16-6.6 0.91-0.367 1.82-0.735 2.76-1.11 11.8-3.24 26.1-1.66 37.2 3.11z" fill="#000100"/>
<path transform="translate(524 396)" d="m0 0c0.566 0.485 1.13 0.969 1.71 1.47v2h2c12 13.7 18.2 28.6 17 47-1.64 10.7-6.41 19.8-12 29 1.76 1.76 4.43 1.17 6.81 1.25 16.5 1.21 28.4 11.4 39.5 22.8 0.831 0.838 1.66 1.68 2.52 2.54 2.62 2.65 5.23 5.3 7.84 7.96 2.62 2.66 5.25 5.31 7.88 7.97 1.63 1.64 3.25 3.29 4.87 4.94 4.2 4.25 8.44 8.22 13.1 11.9 1.44 1.61 1.44 1.61 1.44 5.61-1.47 1.36-1.47 1.36-3.51 2.54-1.11 0.651-1.11 0.651-2.24 1.31-0.784 0.439-1.57 0.878-2.38 1.33-0.761 0.451-1.52 0.901-2.3 1.37-8.32 4.78-8.32 4.78-12.6 4.45-8.44-4.55-15.4-13.1-22.1-19.8-2.01-2.02-4.04-4.04-6.06-6.05-1.28-1.28-2.56-2.57-3.84-3.85-0.606-0.602-1.21-1.2-1.84-1.82-4.19-4.24-4.19-4.24-4.19-6.47h-2v-2c-0.576-0.26-1.15-0.521-1.75-0.789-2.41-1.29-4.24-2.81-6.32-4.59-7.03-5.51-14.9-8.55-24-8.12-14.1 2.34-26.9 11.3-39 18.5 0.518 4.69 1.73 7.64 4.31 11.6 3.74 5.83 7.21 11.8 10.6 17.8 3.5 6.16 7.02 12.3 10.7 18.4 0.351 0.584 0.702 1.17 1.06 1.77 1.54 2.56 3.09 5.12 4.65 7.67 1.4 2.29 2.78 4.58 4.16 6.87 0.434 0.703 0.868 1.41 1.31 2.13 2.36 3.95 3.78 7.13 4.19 11.8-3.27 1.84-6.54 3.67-9.81 5.5-0.929 0.525-1.86 1.05-2.81 1.59-0.893 0.496-1.79 0.993-2.71 1.5-0.822 0.461-1.64 0.922-2.49 1.4-2.18 1.01-2.18 1.01-5.18 1.01v-2h-2c-0.417-0.733-0.833-1.47-1.26-2.22-7.53-13.2-15.1-26.4-22.9-39.5-4.9-8.26-9.7-16.6-14.5-24.9-3.91-6.79-7.85-13.6-11.8-20.3-2.96-5.02-5.89-10.1-8.81-15.1-4.17-7.22-8.36-14.4-12.6-21.6-0.582-0.996-1.16-1.99-1.76-3.02-1.81-3.1-3.62-6.2-5.43-9.29-2.54-4.35-5.08-8.71-7.62-13.1-0.58-0.993-1.16-1.99-1.76-3.01-1.07-1.83-2.14-3.67-3.2-5.51-0.886-1.51-1.8-3.01-2.74-4.48-1.64-2.6-2.67-4.47-2.77-7.57 3.88-8.46 16.4-14.7 24.1-19.4 1.17-0.752 2.34-1.51 3.51-2.27 28.4-18.3 62.7-37.7 94.8-16.2z" fill="#000100"/>
<path transform="translate(878 154)" d="m0 0c2.23 0.832 3.53 1.79 5.3 3.38 0.607 0.537 1.21 1.07 1.84 1.63 0.639 0.577 1.28 1.15 1.94 1.75 1.35 1.2 2.71 2.4 4.07 3.59 0.663 0.587 1.33 1.17 2.01 1.78 2.41 2.1 4.87 4.12 7.36 6.13 6.33 5.13 12.4 10.5 18.6 15.8 7.14 6.21 14.3 12.4 21.7 18.3 4.38 3.55 8.56 7.27 12.7 11.1 2.62 2.33 5.31 4.55 8.03 6.75 3.59 2.91 7.08 5.89 10.5 9 4.2 3.82 8.54 7.41 12.9 11 4.23 3.49 8.36 7.1 12.5 10.7 3.74 3.25 7.52 6.44 11.4 9.56 4.35 3.52 8.5 7.21 12.6 11 3.59 3.18 7.34 6.16 11.1 9.12 2.53 2.21 4.53 4.38 6.45 7.14v3c-2.78 2.28-6.01 3.92-9.12 5.69-0.856 0.511-1.71 1.02-2.59 1.55-8.34 4.81-8.34 4.81-13.3 3.76-2.57-1.58-2.57-1.58-5.12-3.81-0.951-0.821-1.9-1.64-2.88-2.49-3.54-3.17-7.03-6.38-10.5-9.61-4.04-3.74-8.23-7.24-12.5-10.7-2.25-1.86-4.39-3.74-6.52-5.72-0.926-0.842-0.926-0.842-1.87-1.7-1.21-1.11-2.41-2.23-3.59-3.37-1.85-1.75-1.85-1.75-4.95-3.63-4.97 0.676-9.13 3.67-13.4 6.25-1.51 0.902-3.02 1.8-4.52 2.7-0.814 0.488-1.63 0.976-2.47 1.48-4.86 2.89-9.75 5.73-14.6 8.57-9.68 5.64-19.3 11.3-29 17 0.658 6.96 1.86 13.7 3.29 20.5 0.453 2.21 0.905 4.43 1.36 6.64 0.71 3.45 1.42 6.9 2.14 10.4 0.695 3.35 1.38 6.71 2.07 10.1 0.323 1.54 0.323 1.54 0.653 3.1 1.12 5.52 2.04 10.7 1.5 16.3-1.31 1.7-1.31 1.7-3.14 2.68-0.659 0.371-1.32 0.742-2 1.12-0.697 0.353-1.39 0.706-2.11 1.07-0.682 0.376-1.36 0.753-2.07 1.14-1.31 0.719-2.63 1.42-3.97 2.1-1.32 0.682-2.62 1.43-3.89 2.2-2.51 0.933-4.26 0.263-6.83-0.32-3.82-17.5-7.45-35.1-10.8-52.8-0.696-3.63-1.39-7.26-2.09-10.9-0.509-2.65-1.02-5.31-1.53-7.96-2.27-11.8-4.56-23.7-6.85-35.5-0.377-1.95-0.753-3.89-1.13-5.84-1.5-7.75-3-15.5-4.5-23.2-1.89-9.78-3.78-19.6-5.66-29.3-0.942-4.9-1.89-9.81-2.85-14.7-0.587-3.01-1.17-6.01-1.74-9.02-0.268-1.39-0.539-2.77-0.813-4.16-0.372-1.88-0.733-3.76-1.09-5.65-0.204-1.05-0.409-2.1-0.62-3.18-0.299-2.65-0.295-4.26 0.693-6.72 2.23-1.64 2.23-1.64 5.19-3.25 1.08-0.593 2.15-1.19 3.26-1.8 0.575-0.313 1.15-0.625 1.74-0.947 1.89-1.05 3.73-2.15 5.58-3.27 0.622-0.372 1.24-0.744 1.88-1.13 1.21-0.727 2.42-1.46 3.62-2.21 4.19-2.47 4.19-2.47 6.71-2.15z" fill="#000100"/>
<path transform="translate(622 302)" d="m0 0c2.95 2.16 5.72 4.49 8.46 6.9 1.26 1.09 2.51 2.18 3.77 3.27 0.96 0.837 0.96 0.837 1.94 1.69 2.98 2.59 5.98 5.16 8.98 7.73 0.579 0.497 1.16 0.994 1.76 1.51 3.88 3.33 7.78 6.63 11.7 9.93 4.49 3.8 8.97 7.61 13.4 11.4 0.579 0.497 1.16 0.993 1.76 1.51 2.97 2.55 5.95 5.11 8.92 7.67 5.33 4.59 10.7 9.15 16.1 13.6 4.38 3.55 8.56 7.28 12.7 11.1 3.42 3.04 6.97 5.91 10.5 8.79 3.98 3.27 7.88 6.64 11.8 10 3.58 3.08 7.21 6.1 10.9 9.07 4.68 3.8 9.12 7.82 13.6 11.9 2.73 2.45 5.53 4.79 8.38 7.1 3.5 2.85 7 5.69 10.4 8.62 0.713 0.603 1.43 1.21 2.16 1.83 2.01 2.17 2.85 4.13 3.78 6.92-3.22 1.99-6.43 3.98-9.66 5.95-1.87 1.15-3.73 2.3-5.59 3.47-3.47 2.13-5.7 3.2-9.75 2.58-2.31-1.66-4.3-3.28-6.38-5.19-1.25-1.11-2.49-2.22-3.74-3.32-0.64-0.577-1.28-1.15-1.94-1.75-3.11-2.79-6.28-5.51-9.44-8.24-1.25-1.08-2.49-2.16-3.74-3.25-3.79-3.28-7.58-6.55-11.4-9.82-0.568-0.489-1.14-0.977-1.72-1.48-1.55-1.33-3.1-2.64-4.65-3.96-1.28-1.19-1.28-1.19-2.59-2.4-2.25-1.85-2.25-1.85-4.7-1.39-3.15 0.922-5.64 2.25-8.48 3.9-1.69 0.971-1.69 0.971-3.41 1.96-1.21 0.707-2.42 1.41-3.63 2.12-1.25 0.722-2.5 1.44-3.74 2.16-3.2 1.85-6.39 3.7-9.57 5.56-1.8 1.05-3.61 2.1-5.41 3.15-6.03 3.51-12.1 7.02-18.1 10.6-1.5 0.871-3.02 1.72-4.55 2.54-3.93 1.97-3.93 1.97-5.82 5.83 0.209 2.06 0.209 2.06 0.75 4.31 0.193 0.894 0.386 1.79 0.585 2.71 0.329 1.47 0.329 1.47 0.665 2.98 0.464 2.15 0.926 4.3 1.39 6.46 0.256 1.19 0.511 2.38 0.775 3.6 1.44 6.75 2.81 13.5 4.17 20.3 0.472 2.33 0.95 4.67 1.43 7 0.294 1.46 0.588 2.91 0.881 4.37 0.261 1.29 0.523 2.57 0.792 3.9 0.482 2.91 0.806 5.47 0.563 8.4-5.72 6.02-15.6 9.42-23 13v-3h-2c-2.04-10.5-4.09-21-6.12-31.4-0.156-0.801-0.312-1.6-0.472-2.43-3.71-19.1-7.41-38.1-11.1-57.2-0.147-0.769-0.295-1.54-0.446-2.33-1.32-6.89-2.64-13.8-3.95-20.7-3.04-15.9-6.11-31.9-9.27-47.8-0.264-1.33-0.528-2.66-0.792-3.99-1.22-6.15-2.45-12.3-3.69-18.5-0.428-2.15-0.856-4.3-1.28-6.45-0.196-0.962-0.392-1.92-0.594-2.91-0.889-4.5-1.69-8.75-1.32-13.4 1.26-1.62 1.26-1.62 3.12-2.88 0.721-0.489 1.44-0.977 2.18-1.48 4.42-2.7 8.9-5.29 13.4-7.81 3.23-1.74 3.23-1.74 5.95-3.7 2.32-1.14 2.32-1.14 4.24-0.66z" fill="#000100"/>
<path transform="translate(824,620)" d="m0 0c-0.483 7.99-2.61 15.4-4.96 23-0.661 2.16-1.29 4.32-1.92 6.48-2.03 6.74-3.83 12.4-9.38 17.1-3.06 2.58-5.3 5.83-7.68 9.03-0.514 0.689-1.03 1.38-1.56 2.09-10.7 14.1-10.7 14.1-15.5 30.3 0.545-0.666 1.09-1.33 1.65-2.02 1.6-1.95 3.2-3.9 4.8-5.85 1.59-1.94 3.15-3.89 4.7-5.85 4.26-5.37 8.76-10.4 13.5-15.3 0.535-0.561 1.07-1.12 1.62-1.7 3.25-3.26 5.94-5.82 10.7-6.24 3.16 1.47 5.77 3.54 8.5 5.69 0.792 0.6 1.58 1.2 2.4 1.82 2.38 1.81 4.74 3.65 7.1 5.49 1.26 0.968 2.53 1.93 3.8 2.9 27.6 21.2 27.6 21.2 31.2 28.1-0.451 11-15.9 24.1-23.5 31.4-15.3 13.2-33.5 12.4-52.5 11.6-5.15-0.461-10.1-1.5-15-3-1.38-0.418-1.38-0.418-2.8-0.844-9.46-3.33-18.2-9.88-22.6-19-8.07-18.6-5.7-39 1.3-57.6 10.5-26 28.3-43.3 53.7-54.6 0.663-0.299 1.33-0.598 2.01-0.907 3.58-1.53 6.46-2.38 10.4-2.03z" fill="#FBFDFD"/>
<path transform="translate(867 481)" d="m0 0c11.6 7.91 19.6 20.5 23.1 34 2.24 14.9 0.514 29.6-7.76 42.4-9.22 12.2-20.7 19.9-35.9 22.1-1.3 0.103-2.6 0.206-3.94 0.312-0.661 0.0529-1.32 0.106-2 0.16-16 0.677-29.4-5.69-41-16.2-8.9-8.44-14.7-20-15.3-32.3-0.334-16.4 4.1-30.4 15.6-42.6 7.2-6.75 15.5-10.8 24.7-14.1 1.07-0.413 2.14-0.825 3.25-1.25 14-2.8 27 0.394 39.2 7.5z" fill="#FBFDFD"/>
<path transform="translate(803,199)" d="m0 0c1.53 2.23 2.87 4.4 4.19 6.75 0.368 0.621 0.736 1.24 1.12 1.88 3.71 6.53 3.71 6.53 2.7 10.4-1.97 1.61-3.66 2.69-5.88 3.88-0.645 0.367-1.29 0.733-1.96 1.11-1.5 0.851-3.01 1.69-4.51 2.53-4.18 2.33-8.32 4.73-12.5 7.13-2.24 1.29-4.48 2.58-6.73 3.86-6.94 3.98-13.7 8.13-20.5 12.5 1.27 3.33 2.69 6.4 4.47 9.48 0.483 0.843 0.966 1.69 1.46 2.56 0.776 1.34 0.776 1.34 1.57 2.71 0.539 0.937 1.08 1.87 1.63 2.84 4.02 6.98 8.09 13.9 12.2 20.9 11.2 19 22.2 38.1 33.2 57.2 5.88 10.2 11.8 20.4 17.8 30.5 3.75 6.33 7.44 12.7 11.1 19.1 1.54 2.79 1.54 2.79 3.36 5.34 1.23 2.44 1.23 2.44 1.43 4.92-1.96 4.11-5.57 5.67-9.45 7.83-0.764 0.454-1.53 0.909-2.32 1.38-6.92 3.97-6.92 3.97-11.4 3.31-1.52-1.5-1.52-1.5-2.82-3.66-0.505-0.826-1.01-1.65-1.53-2.5-0.545-0.936-1.09-1.87-1.65-2.84-0.603-1-1.21-2.01-1.83-3.04-2.06-3.45-4.09-6.92-6.11-10.4-0.752-1.29-1.5-2.57-2.26-3.86-5.44-9.32-10.8-18.7-16.2-28-4.53-7.87-9.15-15.7-13.8-23.5-5.21-8.75-10.3-17.5-15.4-26.4-9.3-16.4-18.9-32.6-28.4-48.8-4.33 1.58-8.26 3.72-12.2 6-0.695 0.394-1.39 0.787-2.11 1.19-5.12 2.91-10.2 5.88-15.3 8.87-0.703 0.413-1.41 0.826-2.13 1.25-3.43 2.02-6.85 4.05-10.3 6.13-1.25 0.748-2.49 1.5-3.74 2.24-1.63 0.996-1.63 0.996-3.3 2.01-2.95 1.3-2.95 1.3-5.54 1.46-3.8-1.83-5.3-4.9-7.36-8.48-0.635-1.02-0.635-1.02-1.28-2.05-1.18-2-1.18-2-2.78-5.63 0.823-2.89 1.82-3.87 4.28-5.6 0.941-0.508 1.88-1.02 2.85-1.54 1.04-0.572 2.09-1.14 3.16-1.73 1.12-0.599 2.24-1.2 3.39-1.82 2.31-1.26 4.61-2.53 6.91-3.79 1.11-0.609 2.23-1.22 3.37-1.85 4.16-2.3 8.23-4.74 12.3-7.21 15.2-9.21 30.6-18 46-26.8 6.44-3.71 12.9-7.44 19.3-11.2 3.92-2.29 7.84-4.58 11.8-6.86 1.74-1.02 3.49-2.04 5.23-3.06 2.25-1.32 4.51-2.63 6.77-3.94 0.646-0.384 1.29-0.768 1.96-1.16 4.39-2.51 4.39-2.51 7.73-1.4z" fill="#000100"/>
<path transform="translate(1136,480)" d="m0 0c7.68 8.09 9.58 14.8 9.32 25.9-0.318 5.8-2.01 10.8-4.32 16.1-0.316 0.78-0.632 1.56-0.957 2.36-11.4 25.5-35.8 49.6-56.7 67.6-2.37 2.09-4.68 4.23-6.99 6.39-5.38 5.02-10.8 9.83-16.6 14.4-2.44 1.98-4.83 4.02-7.21 6.09-8.02 6.93-16.5 13.2-25.1 19.4-2.47 1.79-4.94 3.59-7.41 5.4-1.58 1.15-3.17 2.31-4.75 3.46-0.718 0.524-1.44 1.05-2.17 1.59-3.46 2.5-6.96 4.95-10.5 7.28-0.966 0.633-0.966 0.633-1.95 1.28-0.546 0.26-1.09 0.52-1.65 0.787-0.66-0.33-1.32-0.66-2-1 2.03-5.09 4.98-8.17 8.91-11.9 1.89-1.85 3.62-3.74 5.34-5.74 3.09-3.59 6.28-7.09 9.5-10.6 0.773-0.834 0.773-0.834 1.56-1.69 1.05-1.13 2.1-2.26 3.15-3.4 4.2-4.54 8.37-9.1 12.5-13.7 0.879-0.962 1.76-1.92 2.66-2.91 4.22-4.63 8.4-9.28 12.5-14 2.2-2.5 4.46-4.94 6.71-7.39 4.05-4.44 7.89-9.01 11.7-13.7 2.3-2.8 4.67-5.52 7.07-8.24 26.5-28.6 26.5-28.6 38.4-63.7-46.3-1.66-94 16.1-138 29.5-8.84 2.71-17.7 5.25-26.6 7.76-2.97 0.836-5.93 1.67-8.9 2.52-0.69 0.195-1.38 0.389-2.09 0.589-3.69 1.05-7.31 2.21-10.9 3.5-3.6 1.11-4.38 1.22-7.71 0.141 5.96-5.65 12.6-9.28 19.8-13.1 1.25-0.658 2.49-1.32 3.74-1.98 3.81-2 7.62-3.99 11.4-5.96 1.14-0.588 2.27-1.18 3.44-1.78 38.3-19.7 79.2-37.6 122-46.2 0.756-0.161 1.51-0.322 2.29-0.487 16.7-3.52 36.3-5.72 50.7 5.49z" fill="#000100"/>
<path transform="translate(681,698)" d="m0 0c-0.713 0.773-1.43 1.55-2.16 2.34-4.76 5.17-9.5 10.4-14.1 15.7-2.01 2.29-4.06 4.54-6.11 6.79-3.07 3.4-6.01 6.86-8.88 10.4-4.1 5.07-8.48 9.81-12.9 14.6-4.06 4.34-7.84 8.84-11.6 13.5-2.5 3.03-5.13 5.9-7.81 8.78-3.93 4.23-7.66 8.57-11.2 13.1-1.74 2.2-3.5 4.38-5.29 6.54-6.75 8.18-13.1 16.4-18.9 25.3-0.768 1.13-1.54 2.26-2.3 3.39-4.08 6.08-7.69 12.2-10.8 18.9-0.308 0.644-0.615 1.29-0.932 1.95-0.715 1.57-1.34 3.18-1.94 4.8l1 2c40.5 13.5 112-21.7 152-33.6 3.2-0.964 6.4-1.92 9.6-2.88 2.05-0.617 4.1-1.24 6.15-1.87 1.2-0.358 2.39-0.717 3.63-1.09 1.5-0.457 1.5-0.457 3.03-0.922 3.38-0.725 6.5-0.739 9.95-0.632-1.4 2.81-3.27 3.45-6 5-1.6 0.967-1.6 0.967-3.22 1.95-48.3 29.1-125 74-183 61-5.4-1.84-9.56-5.07-13.7-8.94-0.527-0.486-1.05-0.972-1.6-1.47-4.44-4.65-5.2-9.82-5.54-16 0.256-8.97 4.2-16.7 8.14-24.5 0.589-1.18 1.18-2.36 1.79-3.57 4.81-8.96 10.9-16.6 17.4-24.3 1.26-1.51 2.5-3.04 3.72-4.58 5.82-7.34 12.2-13.9 18.8-20.5 1.79-1.78 3.58-3.56 5.36-5.34 5.78-5.77 11.6-11.4 17.9-16.7 1.08-0.924 2.16-1.85 3.24-2.77 14-11.8 28.2-23.2 43-34 0.732-0.531 1.46-1.06 2.22-1.61 16.9-12.2 16.9-12.2 21.5-10.6z" fill="#000100"/>
<path transform="translate(505 415)" d="m0 0c7.46 5.98 12.7 14.3 14.8 23.6 1.12 11.2 0.61 21.3-6.19 30.6-6.81 8.17-15 13.7-24 19.3-1.72 1.06-3.44 2.15-5.15 3.23-1.04 0.638-2.07 1.28-3.14 1.93-0.918 0.568-1.84 1.14-2.78 1.72-3.19 1.43-5.26 1.67-8.72 1.21-5.71-4.28-9.17-13.5-12.6-19.7-2.36-4.26-4.81-8.46-7.29-12.6-0.405-0.69-0.81-1.38-1.23-2.09-2.31-3.94-4.66-7.86-7.05-11.8-1.03-1.72-2.07-3.44-3.1-5.16-0.503-0.807-1.01-1.61-1.52-2.44-0.451-0.757-0.903-1.51-1.37-2.29-0.611-1-0.611-1-1.24-2.02-0.624-1.93-0.624-1.93 0.155-4.07 5.23-7.95 16.1-12.4 24.2-16.9 0.891-0.499 1.78-0.998 2.7-1.51 13.8-7.4 29.8-9.92 43.5-1.05z" fill="#FBFDFD"/>
<path transform="translate(875,185)" d="m0 0c4.42 0.419 6.75 3.45 9.62 6.5 3.33 3.7 3.33 3.7 7.38 6.5v2c0.833 0.354 0.833 0.354 1.68 0.715 2.88 1.6 4.98 3.59 7.38 5.85 3.64 3.38 7.32 6.63 11.2 9.75 5.11 4.13 10.1 8.4 15 12.7 3.14 2.74 6.29 5.44 9.53 8.06 0.6 0.489 1.2 0.979 1.82 1.48 1.13 0.919 2.27 1.83 3.42 2.73 2.52 2.06 3.84 3.35 4.8 6.5 0.049 0.722 0.098 1.44 0.148 2.19-12.7 8.92-26.5 16.3-40 24-0.61 0.371-1.22 0.741-1.85 1.12-4.84 2.9-4.84 2.9-8.09 2.63-1.02-0.371-1.02-0.371-2.06-0.75-2.44-6.65-3.97-13.3-5.23-20.2-0.41-2.19-0.82-4.39-1.23-6.58-0.21-1.13-0.42-2.27-0.636-3.44-3.59-19.4-7.4-38.6-12.4-57.7-0.484-2.06-0.484-2.06-0.484-4.06z" fill="#FBFDFD"/>
<path transform="translate(619,333)" d="m0 0c4.24 2.27 7.34 5.18 10.6 8.62 4.66 4.78 9.5 9.07 14.7 13.2 2.64 2.13 5.15 4.36 7.65 6.64 3.4 3.1 6.86 6.05 10.4 8.94 4.79 3.87 9.32 7.96 13.8 12.1 3.45 3.08 7.05 5.93 10.7 8.74 2 1.69 2 1.69 4 4.69v3c-0.699 0.402-1.4 0.804-2.12 1.22-3.27 1.88-6.55 3.77-9.82 5.66-0.885 0.51-0.885 0.51-1.79 1.03-8.04 4.63-16.1 9.28-24 14-10.2 6.06-10.2 6.06-14.3 6.06-2.27-6.27-3.84-12.5-5.05-19-0.179-0.939-0.359-1.88-0.544-2.85-0.381-1.99-0.76-3.99-1.14-5.98-5.24-28.8-5.24-28.8-12.4-57.1-0.876-3.16-1.01-5.8-0.848-9.05z" fill="#FBFDFD"/>
<path transform="translate(435,857)" d="m0 0c0.66 0.33 1.32 0.66 2 1 0.00935 0.688 0.0187 1.38 0.0283 2.09 0.441 26 2.78 53.7 22.2 73.1 5.01 4.58 10.4 8.68 15.8 12.8 1.67 1.33 3.34 2.66 5 4-10.4-1.33-19.2-7.19-27-14-0.688-0.594-1.38-1.19-2.09-1.8-11.6-10.7-18.2-26.8-19.1-42.4-0.0768-3.46-0.0823-6.91-0.0593-10.4-0.00773-1.17-0.0155-2.33-0.0234-3.54 0.0325-14.4 0.0325-14.4 3.27-20.9z" fill="#000100"/>
<path transform="translate(1162,458)" d="m0 0c4.86 3.97 7.74 7.65 8.44 13.9-0.178 4.28-1.63 6.8-4.44 10.1-3.65 3.12-7.05 3.59-11.7 3.41-3.95-0.71-6.57-2.51-9.28-5.41-2.43-3.9-3.37-6.65-2.5-11.1 1.65-5.19 4.89-7.83 9.38-10.8 3.95-1.42 6.1-1.3 10.1-0.125z" fill="#000100"/>
<path transform="translate(535 856)" d="m0 0c3.57 2.38 4.49 3.78 5.81 7.88 0.598 4.47 1.1 8.91-1.05 13-2.44 2.99-4.45 4.82-8.3 5.27-5.77 0.207-9.83 0.0477-14.3-3.79-2.87-3.27-3.36-6.25-3.18-10.5 1.52-5.2 4.23-9.15 8.88-12 4.49-1.5 7.71-1.46 12.2 0.125z" fill="#000100"/>
<path transform="translate(1200,394)" d="m0 0c16.3 4.02 27 12.6 36 26.5 6.8 11.3 8.23 23.3 8.29 36.1 0.0206 1.13 0.0412 2.27 0.0625 3.44 0.0329 7.15-0.79 13.2-3.31 19.9h-1c-0.976-3.93-1.16-7.72-1.29-11.7-0.752-22.8-5.97-44.5-23-60.7-5.46-4.68-11.3-8.21-17.7-11.6 0.66-0.66 1.32-1.32 2-2z" fill="#000100"/>
<path transform="translate(466,853)" d="m0 0h3c-0.311 1.9-0.624 3.79-0.938 5.69-0.174 1.06-0.348 2.11-0.527 3.2-0.327 1.9-0.682 3.8-1.09 5.68-1.62 8.78-0.709 17.8 3.77 25.6 5.22 7.43 12.3 12.9 19.8 17.9 1.7 1.63 3.38 3.29 5 5-11.7-2.18-22.3-6.99-30-16.5-5.98-9.39-8.28-18.6-6.02-29.5 1.88-5.87 4.17-11.5 7-17z" fill="#000100"/>
<path transform="translate(1181,416)" d="m0 0c10.3 0.663 19.5 3.69 27 11 6.15 7.45 9.4 14 9.38 23.8-0.00242 1.05-0.00242 1.05-0.00488 2.13-0.201 8.6-3.32 15.3-8.37 22.1-1.12-3.12-0.846-5.54-0.336-8.77 1.59-10.6 2.39-20.5-3.3-30-4.56-6.11-9.93-10.3-16.4-14.3-0.797-0.496-1.59-0.993-2.41-1.5-0.73-0.452-1.46-0.905-2.21-1.37-1.11-0.701-2.23-1.4-3.38-2.12v-1z" fill="#000100"/>
<path transform="translate(1164,442)" d="m0 0c7.43 0.398 12.7 2.37 17.8 8 4.84 6.27 5.83 11.1 5.2 19-0.651 3.17-1.38 6.19-3 9-1.32 0.687-2.66 1.35-4 2-0.33 0.99-0.66 1.98-1 3-0.675-2.1-1.12-3.53-0.559-5.7 1.56-6.43 1.93-14.1-0.723-20.3-3.38-4.99-7.53-8.99-12.2-12.8-0.496-0.422-0.993-0.843-1.5-1.28v-1z" fill="#000100"/>
<path transform="translate(495,851)" d="m0 0c0.66 0.33 1.32 0.66 2 1-0.119 1.18-0.237 2.37-0.359 3.59-1.31 12.8-1.31 12.8 3.36 24.4 2.29 2.54 4.63 4.9 7.17 7.19 0.603 0.598 1.21 1.2 1.83 1.81v2c1.49 0.495 1.49 0.495 3 1-3.66 1.22-4.32 0.719-7.69-0.938-6.8-3.61-12.5-8.16-15.4-15.5-2.14-8.18 0.0402-14.3 3.91-21.6 1.16-1.97 1.16-1.97 2.16-2.97z" fill="#000100"/>
</svg>
